<svg version="1.1" id="Layer_1" xmlns="http://www.w3.org/2000/svg" xmlns:xlink="http://www.w3.org/1999/xlink" x="0px" y="0px"
	 width="100%" viewBox="0 0 256 256" enable-background="new 0 0 256 256" xml:space="preserve">
<path fill="#010101" opacity="1.000000" stroke="none" 
	d="
M147.000000,257.000000 
	C98.000000,257.000000 49.500008,257.000000 1.000006,257.000000 
	C1.000004,171.666672 1.000004,86.333351 1.000002,1.000018 
	C86.333321,1.000012 171.666641,1.000012 257.000000,1.000006 
	C257.000000,86.333313 257.000000,171.666626 257.000000,256.999969 
	C220.500000,257.000000 184.000000,257.000000 147.000000,257.000000 
M162.487259,236.033478 
	C213.449219,219.153336 245.510025,171.198959 240.797836,118.901863 
	C235.610046,61.326328 186.910950,16.994637 128.852493,16.995928 
	C63.149410,16.997389 11.161661,73.896896 17.205666,139.191055 
	C23.744379,209.829590 93.952469,256.972656 162.487259,236.033478 
z"/>
<path fill="#FCFCFC" opacity="1.000000" stroke="none" 
	d="
M162.099548,236.128479 
	C93.952469,256.972656 23.744379,209.829590 17.205666,139.191055 
	C11.161661,73.896896 63.149410,16.997389 128.852493,16.995928 
	C186.910950,16.994637 235.610046,61.326328 240.797836,118.901863 
	C245.510025,171.198959 213.449219,219.153336 162.099548,236.128479 
M161.851791,45.563343 
	C149.931656,40.774353 137.513214,38.557972 124.727539,39.352814 
	C72.494019,42.600014 34.976910,86.529320 39.824589,138.548065 
	C44.508411,188.808517 93.642021,226.343842 143.318649,217.611771 
	C182.770477,210.676987 213.682556,178.844635 217.958069,140.750275 
	C222.639923,99.035789 200.990295,61.956253 161.851791,45.563343 
z"/>
<path fill="#020202" opacity="1.000000" stroke="none" 
	d="
M162.205353,45.715454 
	C200.990295,61.956253 222.639923,99.035789 217.958069,140.750275 
	C213.682556,178.844635 182.770477,210.676987 143.318649,217.611771 
	C93.642021,226.343842 44.508411,188.808517 39.824589,138.548065 
	C34.976910,86.529320 72.494019,42.600014 124.727539,39.352814 
	C137.513214,38.557972 149.931656,40.774353 162.205353,45.715454 
M117.840073,93.500099 
	C117.840073,112.750252 117.840073,132.000412 117.840073,151.144836 
	C125.587776,151.144836 132.687546,151.144836 139.916168,151.144836 
	C139.916168,125.030754 139.916168,99.152390 139.916168,73.245041 
	C132.445709,73.245041 125.224525,73.245041 117.840073,73.245041 
	C117.840073,79.871689 117.840073,86.185974 117.840073,93.500099 
M117.839386,165.548767 
	C117.839386,171.958069 117.839386,178.367371 117.839386,184.761063 
	C125.577614,184.761063 132.780563,184.761063 139.810883,184.761063 
	C139.810883,177.241776 139.810883,170.033661 139.810883,162.731110 
	C133.322983,162.731110 127.182831,162.643402 121.049797,162.813232 
	C119.965866,162.843246 118.911690,163.947952 117.839386,165.548767 
z"/>
<path fill="#FFFFFF" opacity="1.000000" stroke="none" 
	d="
M117.840073,93.000183 
	C117.840073,86.185974 117.840073,79.871689 117.840073,73.245041 
	C125.224525,73.245041 132.445709,73.245041 139.916168,73.245041 
	C139.916168,99.152390 139.916168,125.030754 139.916168,151.144836 
	C132.687546,151.144836 125.587776,151.144836 117.840073,151.144836 
	C117.840073,132.000412 117.840073,112.750252 117.840073,93.000183 
z"/>
<path fill="#FFFFFF" opacity="1.000000" stroke="none" 
	d="
M117.841583,165.052582 
	C118.911690,163.947952 119.965866,162.843246 121.049797,162.813232 
	C127.182831,162.643402 133.322983,162.731110 139.810883,162.731110 
	C139.810883,170.033661 139.810883,177.241776 139.810883,184.761063 
	C132.780563,184.761063 125.577614,184.761063 117.839386,184.761063 
	C117.839386,178.367371 117.839386,171.958069 117.841583,165.052582 
z"/>
</svg>