<svg version="1.1" id="Layer_1" xmlns="http://www.w3.org/2000/svg" xmlns:xlink="http://www.w3.org/1999/xlink" x="0px" y="0px"
	 width="100%" viewBox="0 0 420 270" enable-background="new 0 0 420 270" xml:space="preserve">
<path fill="#010000" opacity="1.000000" stroke="none" 
	d="
M264.000000,271.000000 
	C176.000015,271.000000 88.500031,271.000000 1.000035,271.000000 
	C1.000023,181.000031 1.000023,91.000061 1.000012,1.000072 
	C140.999939,1.000048 280.999878,1.000048 420.999878,1.000024 
	C420.999908,90.999931 420.999908,180.999863 420.999939,270.999878 
	C368.833344,271.000000 316.666656,271.000000 264.000000,271.000000 
M113.782730,126.958000 
	C112.156860,126.599297 110.458191,126.433304 108.916779,125.851021 
	C97.791855,121.648491 86.199211,123.299408 74.790695,123.274544 
	C68.643806,123.261154 65.397636,126.863243 65.270638,132.033707 
	C65.163315,136.402786 67.723892,139.299347 73.671448,140.126877 
	C78.912704,140.856125 84.275917,140.797867 89.588875,140.899384 
	C95.702782,141.016205 101.820641,140.926498 108.263489,140.926498 
	C108.263489,145.224792 108.263489,148.963882 108.263489,153.269760 
	C106.296776,153.269760 104.506416,153.265747 102.716072,153.270401 
	C88.887833,153.306335 75.057793,153.222183 61.232006,153.425995 
	C52.716507,153.551498 48.857708,156.702332 49.058140,162.690109 
	C49.247952,168.360641 53.063580,170.896332 61.576176,170.890442 
	C75.403992,170.880859 89.231758,170.807724 103.059570,170.801773 
	C104.808144,170.801025 106.556816,171.043671 108.613251,171.196411 
	C108.613251,173.524673 108.612228,175.335648 108.613411,177.146622 
	C108.624222,193.640762 108.775146,210.136841 108.547661,226.627701 
	C108.491188,230.721649 109.911201,231.915100 113.703453,231.756271 
	C118.193153,231.568253 122.698280,231.777130 127.196457,231.756500 
	C133.818161,231.726151 133.898056,231.625549 133.858658,225.191223 
	C133.756653,208.535492 147.282410,195.292465 164.627182,195.065887 
	C182.203949,194.836273 196.112518,207.868942 196.319336,224.762177 
	C196.400482,231.391754 196.723740,231.834564 203.438889,231.838455 
	C230.928741,231.854355 258.418823,231.733826 285.908295,231.821060 
	C289.708466,231.833115 290.794373,230.399399 290.757843,226.811020 
	C290.618774,213.150558 290.696198,199.487915 290.692291,185.826080 
	C290.683472,154.837051 290.708862,123.847969 290.650696,92.859039 
	C290.622131,77.650467 286.019928,73.093544 270.996613,73.092613 
	C242.006882,73.090805 213.017136,73.092056 184.027405,73.092041 
	C182.091904,73.092033 180.156403,73.092041 178.270828,73.092041 
	C175.819290,113.548737 141.677582,132.014420 113.782730,126.958000 
M301.117523,203.499908 
	C301.239960,211.155609 301.280823,218.814224 301.555725,226.464447 
	C301.608887,227.944275 302.452271,230.581467 303.143585,230.653793 
	C306.740204,231.030060 310.565369,231.327179 313.961548,230.388153 
	C315.173615,230.053024 315.768219,226.210159 316.023621,223.899750 
	C317.510345,210.452484 325.773407,199.934738 337.957672,196.290726 
	C350.613617,192.505661 363.817444,196.494797 372.264008,206.572693 
	C376.994385,212.216705 378.497040,218.894257 379.059143,226.008865 
	C379.171661,227.433060 380.432678,229.799515 381.436340,229.953094 
	C388.086487,230.970825 397.982208,222.754608 398.103546,216.007889 
	C398.327850,203.532990 398.539490,191.034592 397.985657,178.580246 
	C397.758087,173.462982 396.437897,167.952606 394.041077,163.460693 
	C388.102692,152.331528 381.217102,141.710083 374.787933,130.839798 
	C369.076630,121.183189 360.646271,116.836555 349.480560,116.992706 
	C334.999847,117.195190 320.512329,116.941193 306.033569,117.204414 
	C304.537933,117.231606 302.304504,119.171875 301.785370,120.692780 
	C300.957245,123.118774 301.144226,125.938011 301.140259,128.591324 
	C301.103546,153.227493 301.117889,177.863708 301.117523,203.499908 
M85.823265,42.339069 
	C72.445290,59.665726 71.118622,81.479309 82.365181,99.198143 
	C93.263023,116.367584 114.187157,124.978119 133.928787,120.417175 
	C155.101746,115.525558 169.858978,98.249863 171.725082,76.170616 
	C173.404724,56.297642 161.208466,36.414421 142.102737,28.471205 
	C123.667519,20.806751 100.594734,24.711761 85.823265,42.339069 
M340.084961,245.681778 
	C351.246796,248.841965 360.300842,245.532532 365.432953,236.416595 
	C370.045532,228.223343 368.684692,218.017380 361.954010,211.620605 
	C355.477112,205.465027 347.832855,204.331665 339.727356,207.536057 
	C331.964905,210.604813 327.278320,216.488174 326.904236,224.976364 
	C326.488983,234.400345 330.858276,241.225021 340.084961,245.681778 
M156.514526,207.727707 
	C145.803543,213.063461 141.664368,224.109207 146.315262,234.945328 
	C150.649506,245.043625 161.375763,249.607681 172.056183,245.898193 
	C181.981934,242.450821 187.762405,231.275101 184.985809,220.900467 
	C181.842117,209.154114 170.599915,203.675369 156.514526,207.727707 
M35.704697,110.079857 
	C51.070484,110.079857 66.436272,110.079857 82.003731,110.079857 
	C78.751709,104.523369 76.011589,99.629166 73.019386,94.894264 
	C72.359627,93.850250 70.812180,92.739212 69.663498,92.728462 
	C57.002743,92.610039 44.325714,92.397842 31.689533,92.989372 
	C29.074675,93.111778 25.554195,95.896751 24.282047,98.389122 
	C21.027515,104.765350 25.697872,109.672241 35.704697,110.079857 
z"/>
<path fill="#E11E24" opacity="1.000000" stroke="none" 
	d="
M114.211197,127.011536 
	C141.677582,132.014420 175.819290,113.548737 178.270828,73.092041 
	C180.156403,73.092041 182.091904,73.092033 184.027405,73.092041 
	C213.017136,73.092056 242.006882,73.090805 270.996613,73.092613 
	C286.019928,73.093544 290.622131,77.650467 290.650696,92.859039 
	C290.708862,123.847969 290.683472,154.837051 290.692291,185.826080 
	C290.696198,199.487915 290.618774,213.150558 290.757843,226.811020 
	C290.794373,230.399399 289.708466,231.833115 285.908295,231.821060 
	C258.418823,231.733826 230.928741,231.854355 203.438889,231.838455 
	C196.723740,231.834564 196.400482,231.391754 196.319336,224.762177 
	C196.112518,207.868942 182.203949,194.836273 164.627182,195.065887 
	C147.282410,195.292465 133.756653,208.535492 133.858658,225.191223 
	C133.898056,231.625549 133.818161,231.726151 127.196457,231.756500 
	C122.698280,231.777130 118.193153,231.568253 113.703453,231.756271 
	C109.911201,231.915100 108.491188,230.721649 108.547661,226.627701 
	C108.775146,210.136841 108.624222,193.640762 108.613411,177.146622 
	C108.612228,175.335648 108.613251,173.524673 108.613251,171.196411 
	C106.556816,171.043671 104.808144,170.801025 103.059570,170.801773 
	C89.231758,170.807724 75.403992,170.880859 61.576176,170.890442 
	C53.063580,170.896332 49.247952,168.360641 49.058140,162.690109 
	C48.857708,156.702332 52.716507,153.551498 61.232006,153.425995 
	C75.057793,153.222183 88.887833,153.306335 102.716072,153.270401 
	C104.506416,153.265747 106.296776,153.269760 108.263489,153.269760 
	C108.263489,148.963882 108.263489,145.224792 108.263489,140.926498 
	C101.820641,140.926498 95.702782,141.016205 89.588875,140.899384 
	C84.275917,140.797867 78.912704,140.856125 73.671448,140.126877 
	C67.723892,139.299347 65.163315,136.402786 65.270638,132.033707 
	C65.397636,126.863243 68.643806,123.261154 74.790695,123.274544 
	C86.199211,123.299408 97.791855,121.648491 108.916779,125.851021 
	C110.458191,126.433304 112.156860,126.599297 114.211197,127.011536 
z"/>
<path fill="#E01E24" opacity="1.000000" stroke="none" 
	d="
M301.117462,202.999908 
	C301.117889,177.863708 301.103546,153.227493 301.140259,128.591324 
	C301.144226,125.938011 300.957245,123.118774 301.785370,120.692780 
	C302.304504,119.171875 304.537933,117.231606 306.033569,117.204414 
	C320.512329,116.941193 334.999847,117.195190 349.480560,116.992706 
	C360.646271,116.836555 369.076630,121.183189 374.787933,130.839798 
	C381.217102,141.710083 388.102692,152.331528 394.041077,163.460693 
	C396.437897,167.952606 397.758087,173.462982 397.985657,178.580246 
	C398.539490,191.034592 398.327850,203.532990 398.103546,216.007889 
	C397.982208,222.754608 388.086487,230.970825 381.436340,229.953094 
	C380.432678,229.799515 379.171661,227.433060 379.059143,226.008865 
	C378.497040,218.894257 376.994385,212.216705 372.264008,206.572693 
	C363.817444,196.494797 350.613617,192.505661 337.957672,196.290726 
	C325.773407,199.934738 317.510345,210.452484 316.023621,223.899750 
	C315.768219,226.210159 315.173615,230.053024 313.961548,230.388153 
	C310.565369,231.327179 306.740204,231.030060 303.143585,230.653793 
	C302.452271,230.581467 301.608887,227.944275 301.555725,226.464447 
	C301.280823,218.814224 301.239960,211.155609 301.117462,202.999908 
M319.059509,164.880875 
	C320.762299,165.831284 322.452820,167.580460 324.169769,167.606735 
	C338.981750,167.833435 353.798553,167.776886 368.613678,167.726898 
	C370.673340,167.719940 372.731537,167.288864 376.173706,166.896408 
	C370.940369,156.329437 366.625397,146.420181 361.117828,137.225266 
	C359.465332,134.466415 354.577759,132.521515 351.015747,132.248962 
	C341.745880,131.539719 332.388336,132.027023 323.067596,131.901428 
	C320.078400,131.861176 318.883057,133.015915 318.914825,136.015564 
	C319.013489,145.335190 318.959991,154.656433 319.059509,164.880875 
z"/>
<path fill="#DE1D23" opacity="1.000000" stroke="none" 
	d="
M86.055069,42.069344 
	C100.594734,24.711761 123.667519,20.806751 142.102737,28.471205 
	C161.208466,36.414421 173.404724,56.297642 171.725082,76.170616 
	C169.858978,98.249863 155.101746,115.525558 133.928787,120.417175 
	C114.187157,124.978119 93.263023,116.367584 82.365181,99.198143 
	C71.118622,81.479309 72.445290,59.665726 86.055069,42.069344 
M104.690475,39.042381 
	C88.469284,48.800781 81.260086,65.374802 85.683212,82.740288 
	C89.884933,99.236565 104.678307,111.339996 121.354980,111.925720 
	C137.953354,112.508682 152.945343,103.104561 159.046005,88.283043 
	C165.353836,72.958260 161.763229,56.030365 149.818542,44.780106 
	C137.862762,33.519394 120.770493,31.183870 104.690475,39.042381 
z"/>
<path fill="#E01E24" opacity="1.000000" stroke="none" 
	d="
M339.733582,245.510178 
	C330.858276,241.225021 326.488983,234.400345 326.904236,224.976364 
	C327.278320,216.488174 331.964905,210.604813 339.727356,207.536057 
	C347.832855,204.331665 355.477112,205.465027 361.954010,211.620605 
	C368.684692,218.017380 370.045532,228.223343 365.432953,236.416595 
	C360.300842,245.532532 351.246796,248.841965 339.733582,245.510178 
M341.374878,220.927063 
	C338.275116,225.690475 338.465912,229.335983 341.977051,232.433807 
	C345.343140,235.403656 350.114990,235.333023 353.279816,232.266510 
	C356.291473,229.348404 356.558258,224.942932 353.939240,221.378235 
	C351.303558,217.790863 347.494568,217.485107 341.374878,220.927063 
z"/>
<path fill="#E01E24" opacity="1.000000" stroke="none" 
	d="
M156.865967,207.547806 
	C170.599915,203.675369 181.842117,209.154114 184.985809,220.900467 
	C187.762405,231.275101 181.981934,242.450821 172.056183,245.898193 
	C161.375763,249.607681 150.649506,245.043625 146.315262,234.945328 
	C141.664368,224.109207 145.803543,213.063461 156.865967,207.547806 
M159.160110,220.749496 
	C155.289368,226.256622 156.585358,232.269821 162.132629,234.093277 
	C166.230057,235.440170 170.355179,234.483292 171.885757,230.632812 
	C172.965103,227.917480 172.551529,223.707413 171.109100,221.104095 
	C168.992294,217.283676 164.766708,217.408478 159.160110,220.749496 
z"/>
<path fill="#E21E24" opacity="1.000000" stroke="none" 
	d="
M35.236828,110.079147 
	C25.697872,109.672241 21.027515,104.765350 24.282047,98.389122 
	C25.554195,95.896751 29.074675,93.111778 31.689533,92.989372 
	C44.325714,92.397842 57.002743,92.610039 69.663498,92.728462 
	C70.812180,92.739212 72.359627,93.850250 73.019386,94.894264 
	C76.011589,99.629166 78.751709,104.523369 82.003731,110.079857 
	C66.436272,110.079857 51.070484,110.079857 35.236828,110.079147 
z"/>
<path fill="#030000" opacity="1.000000" stroke="none" 
	d="
M319.012512,164.428955 
	C318.959991,154.656433 319.013489,145.335190 318.914825,136.015564 
	C318.883057,133.015915 320.078400,131.861176 323.067596,131.901428 
	C332.388336,132.027023 341.745880,131.539719 351.015747,132.248962 
	C354.577759,132.521515 359.465332,134.466415 361.117828,137.225266 
	C366.625397,146.420181 370.940369,156.329437 376.173706,166.896408 
	C372.731537,167.288864 370.673340,167.719940 368.613678,167.726898 
	C353.798553,167.776886 338.981750,167.833435 324.169769,167.606735 
	C322.452820,167.580460 320.762299,165.831284 319.012512,164.428955 
z"/>
<path fill="#020000" opacity="1.000000" stroke="none" 
	d="
M105.026306,38.873936 
	C120.770493,31.183870 137.862762,33.519394 149.818542,44.780106 
	C161.763229,56.030365 165.353836,72.958260 159.046005,88.283043 
	C152.945343,103.104561 137.953354,112.508682 121.354980,111.925720 
	C104.678307,111.339996 89.884933,99.236565 85.683212,82.740288 
	C81.260086,65.374802 88.469284,48.800781 105.026306,38.873936 
M120.416557,53.882557 
	C119.700638,59.277008 120.559212,64.794281 115.853378,69.450821 
	C112.837700,72.434921 115.146164,78.303741 119.021301,80.507858 
	C124.469437,83.606644 129.869064,86.799362 135.421875,89.698273 
	C136.547516,90.285927 138.261871,89.745865 139.704834,89.725693 
	C139.599075,88.410255 139.911621,86.850967 139.312454,85.823151 
	C137.143555,82.102562 134.488586,78.662094 132.372025,74.915390 
	C130.954590,72.406273 130.160568,69.548424 129.043381,66.865028 
	C128.327591,65.145760 127.077095,63.517151 126.854652,61.748734 
	C126.130554,55.992340 125.853951,50.180527 125.187622,44.415180 
	C125.071434,43.409859 123.901154,42.526363 123.217720,41.586597 
	C122.519089,42.568615 121.381386,43.479046 121.207329,44.546589 
	C120.755112,47.320164 120.726402,50.162788 120.416557,53.882557 
z"/>
<path fill="#090101" opacity="1.000000" stroke="none" 
	d="
M341.659424,220.671204 
	C347.494568,217.485107 351.303558,217.790863 353.939240,221.378235 
	C356.558258,224.942932 356.291473,229.348404 353.279816,232.266510 
	C350.114990,235.333023 345.343140,235.403656 341.977051,232.433807 
	C338.465912,229.335983 338.275116,225.690475 341.659424,220.671204 
z"/>
<path fill="#070101" opacity="1.000000" stroke="none" 
	d="
M159.450256,220.487823 
	C164.766708,217.408478 168.992294,217.283676 171.109100,221.104095 
	C172.551529,223.707413 172.965103,227.917480 171.885757,230.632812 
	C170.355179,234.483292 166.230057,235.440170 162.132629,234.093277 
	C156.585358,232.269821 155.289368,226.256622 159.450256,220.487823 
z"/>
<path fill="#DC1D23" opacity="1.000000" stroke="none" 
	d="
M120.472626,53.430206 
	C120.726402,50.162788 120.755112,47.320164 121.207329,44.546589 
	C121.381386,43.479046 122.519089,42.568615 123.217720,41.586597 
	C123.901154,42.526363 125.071434,43.409859 125.187622,44.415180 
	C125.853951,50.180527 126.130554,55.992340 126.854652,61.748734 
	C127.077095,63.517151 128.327591,65.145760 129.043381,66.865028 
	C130.160568,69.548424 130.954590,72.406273 132.372025,74.915390 
	C134.488586,78.662094 137.143555,82.102562 139.312454,85.823151 
	C139.911621,86.850967 139.599075,88.410255 139.704834,89.725693 
	C138.261871,89.745865 136.547516,90.285927 135.421875,89.698273 
	C129.869064,86.799362 124.469437,83.606644 119.021301,80.507858 
	C115.146164,78.303741 112.837700,72.434921 115.853378,69.450821 
	C120.559212,64.794281 119.700638,59.277008 120.472626,53.430206 
z"/>
</svg>